<svg xmlns="http://www.w3.org/2000/svg" width="24" height="24" viewBox="0 0 24 24">
  <!-- Boxicons v3.0.8 https://boxicons.com | License https://docs.boxicons.com/free -->
  <defs>
    <linearGradient id="branchGradient" x1="0%" y1="0%" x2="100%" y2="100%">
      <stop offset="0%" stop-color="#bf57ef"/>
      <stop offset="100%" stop-color="#3b82f6"/>
    </linearGradient>
  </defs>
  <g transform="translate(0 24) scale(1 -1)">
    <path
      fill="url(#branchGradient)"
      transform="translate(-1 -1) scale(1.08)"
      d="M7 16.18v-5.23A6.88 6.88 0 0 0 11.89 13h3.29c.41 1.16 1.51 2 2.82 2 1.65 0 3-1.35 3-3s-1.35-3-3-3c-1.3 0-2.4.84-2.82 2h-3.29c-2.14 0-3.94-1.39-4.61-3.3A2.99 2.99 0 0 0 8.99 5c0-1.65-1.35-3-3-3s-3 1.35-3 3c0 1.3.84 2.4 2 2.82v8.37c-1.16.41-2 1.51-2 2.82 0 1.65 1.35 3 3 3s3-1.35 3-3c0-1.3-.84-2.4-2-2.82ZM18 11c.55 0 1 .45 1 1s-.45 1-1 1-1-.45-1-1 .45-1 1-1M6 4c.55 0 1 .45 1 1s-.45 1-1 1-1-.45-1-1 .45-1 1-1m0 16c-.55 0-1-.45-1-1s.45-1 1-1 1 .45 1 1-.45 1-1 1"
    />
  </g>
</svg>
